<svg width="7" height="12" viewBox="0 0 7 12" fill="none" xmlns="http://www.w3.org/2000/svg">
<path d="M0.700781 11.3008C0.517448 11.1174 0.425781 10.8841 0.425781 10.6008C0.425781 10.3174 0.517448 10.0841 0.700781 9.90078L4.60078 6.00078L0.700781 2.10078C0.517448 1.91745 0.425781 1.68411 0.425781 1.40078C0.425781 1.11745 0.517448 0.884114 0.700781 0.700781C0.884114 0.517448 1.11745 0.425781 1.40078 0.425781C1.68411 0.425781 1.91745 0.517448 2.10078 0.700781L6.70078 5.30078C6.80078 5.40078 6.87178 5.50911 6.91378 5.62578C6.95511 5.74245 6.97578 5.86745 6.97578 6.00078C6.97578 6.13411 6.95511 6.25911 6.91378 6.37578C6.87178 6.49245 6.80078 6.60078 6.70078 6.70078L2.10078 11.3008C1.91745 11.4841 1.68411 11.5758 1.40078 11.5758C1.11745 11.5758 0.884114 11.4841 0.700781 11.3008Z" fill="black"/>
</svg>
